<svg width="32" height="32" viewBox="0 0 32 32" fill="none" xmlns="http://www.w3.org/2000/svg">
<path d="M16 1.01627V4.17246C18.0438 4.17246 20.0188 4.13547 21.2 4.36972C21.7875 4.48684 22.1313 4.65945 22.25 4.76424C22.3687 4.86904 22.4 4.85671 22.4 5.25739C22.4 5.3437 22.4187 5.37452 22.3 5.50397C22.1812 5.63342 21.9 5.84918 21.6 5.99712C20.9938 6.29302 20.35 6.39165 20.35 6.39165L18.75 6.73685L19.1 8.31494L19.45 9.7944C15.5312 10.2999 12.4125 12.3773 10.2 14.43L8.85 12.9506C9.08125 12.8766 9.44375 12.7533 9.6 12.704C10.8813 12.2294 11.2 11.9026 11.2 10.4848H1.6C1.6 13.3266 3.2 13.9369 4.8 13.9369C4.96875 13.9369 5.225 13.8752 5.45 13.8383L8 16.7972C7.3375 17.617 7.0625 18.0177 6.8 18.4246C6.66875 18.4184 6.5375 18.3753 6.4 18.3753C2.88125 18.3753 0 21.2171 0 24.6876C0 28.1582 2.88125 31 6.4 31C9.91875 31 12.8 28.1582 12.8 24.6876C12.8 22.5178 11.65 20.5945 9.95 19.4602C11.55 17.4013 15.2 13.5239 20.1 12.9506L20.75 15.8602C17.925 17.0684 16 19.8362 16 23.1095C16 27.5294 19.5187 31 24 31C28.4813 31 32 27.5294 32 23.1095C32 18.6897 28.4813 15.2191 24 15.2191C23.9688 15.2191 23.9312 15.2191 23.9 15.2191L22.5 9.00536C22.7563 8.91289 22.7625 8.94988 23.05 8.8081C23.5875 8.54303 24.1375 8.18549 24.65 7.62453C25.1625 7.06357 25.6 6.19438 25.6 5.25739C25.6 4.16013 25.1562 3.12451 24.4 2.44642C23.6437 1.76833 22.7125 1.44162 21.8 1.26285C19.9812 0.905316 17.9562 1.01627 16 1.01627ZM24.6 18.4246C27.0188 18.702 28.8 20.6253 28.8 23.1095C28.8 25.7911 26.7188 27.8438 24 27.8438C21.2812 27.8438 19.2 25.7911 19.2 23.1095C19.2 21.3527 20.1187 19.8794 21.5 19.0657L22.4 23.1095L22.45 23.4548H22.5C22.6688 24.1452 23.2437 24.6876 24 24.6876C24.8813 24.6876 25.6 23.9787 25.6 23.1095C25.6 22.9801 25.5312 22.8815 25.5 22.7643H25.55L24.6 18.4246ZM6.4 21.5315C6.61875 21.5315 6.84375 21.5376 7.05 21.5808C7.06875 21.5993 7.08125 21.6116 7.1 21.6301C7.14375 21.6424 7.20625 21.6178 7.25 21.6301C7.3 21.6486 7.35 21.6671 7.4 21.6794C8.675 22.0924 9.6 23.2945 9.6 24.6876C9.6 26.426 8.1625 27.8438 6.4 27.8438C4.6375 27.8438 3.2 26.426 3.2 24.6876C3.2 22.9493 4.6375 21.5315 6.4 21.5315Z" fill="#303030"/>
</svg>
