<svg width="32" height="32" viewBox="0 0 32 32" fill="none" xmlns="http://www.w3.org/2000/svg">
<path d="M16.5 0C12.3447 0 8.85767 2.97727 8.05469 6.95455L10.8848 7.54545C11.4182 4.89773 13.7092 2.90909 16.5 2.90909C19.6895 2.90909 22.25 5.5 22.25 8.72727V10.3182C20.5542 9.32386 18.6001 8.72727 16.5 8.72727C10.1492 8.72727 5 13.9375 5 20.3636C5 26.7898 10.1492 32 16.5 32C22.8508 32 28 26.7898 28 20.3636C28 17.4148 26.9106 14.733 25.125 12.6818V8.72727C25.125 3.92614 21.2449 0 16.5 0ZM16.5 11.6364C21.2561 11.6364 25.125 15.5511 25.125 20.3636C25.125 25.1761 21.2561 29.0909 16.5 29.0909C11.7439 29.0909 7.875 25.1761 7.875 20.3636C7.875 15.5511 11.7439 11.6364 16.5 11.6364ZM16.5 17.4545C14.9109 17.4545 13.625 18.7557 13.625 20.3636C13.625 21.9716 14.9109 23.2727 16.5 23.2727C18.0891 23.2727 19.375 21.9716 19.375 20.3636C19.375 18.7557 18.0891 17.4545 16.5 17.4545Z" fill="#303030"/>
</svg>
